# xmcd
#
# Track frame offsets: 
#        150
#        4973
#        16918
#        28009
#        39197
#        51026
#        62514
#        74236
#        86342
#        98650
#        109853
#        120558
#        132888
#        142761
#        154956
#        166185
#        178162
#        190443
#        202552
#        214106
#        227079
#        239229
#        249649
#        261509
#        274098
#        285728
#        297570
#        309393
#        321435
#        333720
#        345778
#
# Disc length: 4780 seconds
#
# Revision: 0
# Processed by: cddbd v1.5.1PL0 Copyright (c) Steve Scherf et al.
# Submitted via: ExactAudioCopy v0.95a5
#
DISCID=cc12aa1f
DTITLE=Various Artist - Premo Beats (Mixed by E-NYCE) - CD3
DYEAR=1900
DGENRE=Hip-Hop Instrumentals
TTITLE0=Underground Instrumentals/Intro - "My Catalog"
TTITLE1=KRS One/MCs Act Like They Don't Know
TTITLE2=Gangstarr/Mass Appeal
TTITLE3=Nas/Memory Lane
TTITLE4=Bahamadia/3 Da Hard Way
TTITLE5=Jeru Da Damaja/Can't Stop Da Prophet
TTITLE6=Jeru Da Damaja/D Original
TTITLE7=Gangstarr/Question Remains
TTITLE8=Big Shug/Crush
TTITLE9=Blaq Poet/Poet's Comin
TTITLE10=M.O.P./Unreleased Beat
TTITLE11=DITC/The Enemy
TTITLE12=DJ Premier/Unreleased Beat
TTITLE13=Heather B/Steady Rockin'
TTITLE14=O.C./M.U.G. (Money Underground)
TTITLE15=D'Angelo/Devil's Pie
TTITLE16=Gangstarr/You Know My Steez
TTITLE17=Gangstarr/Full Clip
TTITLE18=Gangstarr and Total/Discipline
TTITLE19=Pitch Black/It's All Real
TTITLE20=Nas/Nas Is Like
TTITLE21=Nas/Second Childhood
TTITLE22=Big Jaz/Love Is Gone
TTITLE23=Big L/Platinum Plus
TTITLE24=All City/The Actual
TTITLE25=Mos Def/Mathematics
TTITLE26=Mos Def and Craig David/7 Days (Remix)
TTITLE27=Common/6th Sense
TTITLE28=Das Efx/Real Hip Hop
TTITLE29=Jeru Da Damaja/Playin Ya'self
TTITLE30=E-NYCE/Bonus Beat - Stay Tuned For Underground Instrumentals 
TTITLE30=Pt. 6
EXTD=
EXTT0=
EXTT1=
EXTT2=
EXTT3=
EXTT4=
EXTT5=
EXTT6=
EXTT7=
EXTT8=
EXTT9=
EXTT10=
EXTT11=
EXTT12=
EXTT13=
EXTT14=
EXTT15=
EXTT16=
EXTT17=
EXTT18=
EXTT19=
EXTT20=
EXTT21=
EXTT22=
EXTT23=
EXTT24=
EXTT25=
EXTT26=
EXTT27=
EXTT28=
EXTT29=
EXTT30=
PLAYORDER=
